HIERARCHY
ROOT Hips
{
  OFFSET -331.093 83.8371 -317.828
  CHANNELS 6 Xposition Yposition Zposition Zrotation Xrotation Yrotation
  JOINT LeftUpLeg
  {
    OFFSET 8.64259 1.95398 -2.38835
    CHANNELS 3 Zrotation Xrotation Yrotation
    JOINT LeftLeg
    {
      OFFSET 43.7702 0 0
      CHANNELS 3 Zrotation Xrotation Yrotation
      JOINT LeftFoot
      {
        OFFSET 40.6238 0 0
        CHANNELS 3 Zrotation Xrotation Yrotation
        JOINT LeftToeBase
        {
          OFFSET 12.7242 0 0
          CHANNELS 3 Zrotation Xrotation Yrotation
          End Site
          {
            OFFSET 0 0 0
          }
        }
      }
    }
  }
  JOINT RightUpLeg
  {
    OFFSET -8.2249 1.95398 -2.59336
    CHANNELS 3 Zrotation Xrotation Yrotation
    JOINT RightLeg
    {
      OFFSET 43.5653 0 0
      CHANNELS 3 Zrotation Xrotation Yrotation
      JOINT RightFoot
      {
        OFFSET 40.6238 0 0
        CHANNELS 3 Zrotation Xrotation Yrotation
        JOINT RightToeBase
        {
          OFFSET 12.7242 0 0
          CHANNELS 3 Zrotation Xrotation Yrotation
          End Site
          {
            OFFSET 0 0 0
          }
        }
      }
    }
  }
  JOINT Spine
  {
    OFFSET 0.165834 0.87714 6.61349
    CHANNELS 3 Zrotation Xrotation Yrotation
    JOINT Spine1
    {
      OFFSET 7.38963 1.71661e-005 0
      CHANNELS 3 Zrotation Xrotation Yrotation
      JOINT Spine2
      {
        OFFSET 11.9445 1.14441e-005 0
        CHANNELS 3 Zrotation Xrotation Yrotation
        JOINT Spine3
        {
          OFFSET 14.7254 4.19617e-005 0
          CHANNELS 3 Zrotation Xrotation Yrotation
          JOINT Spine4
          {
            OFFSET 10.9679 0 0
            CHANNELS 3 Zrotation Xrotation Yrotation
            JOINT RightShoulder
            {
              OFFSET 2.46616 -1.6653 3.69651
              CHANNELS 3 Zrotation Xrotation Yrotation
              JOINT RightArm
              {
                OFFSET 13.0012 0 0
                CHANNELS 3 Zrotation Xrotation Yrotation
                JOINT RightForeArm
                {
                  OFFSET 28.7848 1.62311e-005 0
                  CHANNELS 3 Zrotation Xrotation Yrotation
                  JOINT RightHand
                  {
                    OFFSET 26.5688 1.62095e-005 0
                    CHANNELS 3 Zrotation Xrotation Yrotation
                    End Site
                    {
                      OFFSET 0 0 0
                    }
                  }
                }
              }
            }
            JOINT LeftShoulder
            {
              OFFSET 2.38034 -1.29275 -3.7523
              CHANNELS 3 Zrotation Xrotation Yrotation
              JOINT LeftArm
              {
                OFFSET 16.3182 6.07031e-005 0
                CHANNELS 3 Zrotation Xrotation Yrotation
                JOINT LeftForeArm
                {
                  OFFSET 27.0901 0 0
                  CHANNELS 3 Zrotation Xrotation Yrotation
                  JOINT LeftHand
                  {
                    OFFSET 24.5451 1.51738e-005 0
                    CHANNELS 3 Zrotation Xrotation Yrotation
                    End Site
                    {
                      OFFSET 0 0 0
                    }
                  }
                }
              }
            }
            JOINT Neck
            {
              OFFSET 5.0226 -0.0266342 0
              CHANNELS 3 Zrotation Xrotation Yrotation
              JOINT Head
              {
                OFFSET 6.69364 2.86102e-005 0
                CHANNELS 3 Zrotation Xrotation Yrotation
                End Site
                {
                  OFFSET 0 0 0
                }
              }
            }
          }
        }
      }
    }
  }
}
MOTION
Frames:	7
Frame Time:	0.0416667
3.17776 92.6378 -60.1474 88.9595 -18.7564 86.376 -173.551 -9.36659 92.5729 -28.7689 29.1099 1.66612 65.0976 4.94269 4.7226 52.5567 24.9177 10.6024 175.661 33.4026 86.2587 -17.1352 2.41785 -1.74369 65.6155 -2.8272 -1.55843 45.8275 -3.3133 -10.8747 -1.5023 7.67978 -89.7778 11.5264 -2.88464 0.740232 -0.141595 -2.84926 0.866559 -22.7025 -2.97366 -0.161716 -2.68984 -2.97364 -0.161717 90.9303 -45.3668 -100.044 37.3895 -18.1364 32.5464 -9.82241 -19.7573 -40.5044 -4.87734 -0.377361 1.00298 -94.1799 -44.1691 71.2681 -5.96206 8.56897 -18.3671 8.53588 8.4828 -45.7808 13.4795 0.754849 1.69937 -16.6205 -15.6601 -8.26884 11.9783 -16.0613 -3.22493 
11.787 91.624 -54.0356 88.9436 -19.0816 89.5999 -171.855 -11.344 98.2567 -31.9486 29.3816 3.4029 56.8157 -2.24826 -0.811089 41.5719 24.1539 29.3609 175.978 36.1926 90.1361 -32.1966 3.46943 -1.01099 63.1303 -0.873745 -0.590594 42.54 -2.74289 -10.4087 -1.61829 7.60422 -90.3153 11.6695 -3.36688 -0.277081 0.00298273 -3.3758 -0.128467 -22.5636 -3.12781 -1.27713 -2.55095 -3.1278 -1.27713 90.775 -45.1732 -100.343 35.0449 -17.2685 30.8194 -9.8807 -20.5761 -38.6831 -4.72777 -0.394338 2.11124 -94.8231 -45.3138 70.6353 -8.45673 7.85753 -13.8105 9.55675 9.28827 -46.3738 14.182 0.784921 1.64686 -15.2116 -15.0238 -6.61987 10.5305 -15.1562 -1.89882 
20.0747 90.9752 -48.5418 90.6392 -22.8357 91.0778 -171.627 -9.34287 98.862 -42.6231 24.7964 3.367 45.5607 -10.3521 -5.741 25.6932 2.69944 23.7559 175.451 35.1111 93.1049 -43.9359 2.69466 -0.72958 66.6851 -1.75395 -1.19906 35.1002 -0.953018 -4.82277 -1.37408 7.71198 -90.449 11.4448 -2.94361 -0.595892 -0.222898 -2.96699 -0.465656 -22.7793 -2.62835 -1.45356 -2.76669 -2.62835 -1.45355 91.1222 -43.6682 -100.146 33.9959 -15.3252 26.5952 -9.07624 -18.1468 -38.2452 -4.55269 -0.376483 2.36534 -95.3317 -46.1083 70.1118 -11.3165 10.021 -7.91479 7.70589 7.8199 -45.5444 16.7996 1.03192 2.26912 -14.2526 -13.1985 -4.62145 9.55424 -13.2774 -1.74183 
27.4484 91.7502 -43.5415 92.1595 -25.0942 92.409 -171.992 0.107761 98.6327 -58.9034 17.2705 3.18952 47.2477 -9.17346 -2.63642 26.337 2.79934 21.3898 175.482 28.9535 95.4565 -46.6651 2.63804 -1.20659 72.0544 -4.02353 -2.36663 32.8743 -0.511156 -2.86207 -1.02176 7.80628 -90.4518 11.2563 -2.24373 -0.677763 -0.412829 -2.2714 -0.578313 -22.9587 -1.93629 -1.32095 -2.94607 -1.9363 -1.32095 91.025 -42.94 -100.489 34.4283 -13.4505 22.4966 -8.86104 -13.406 -40.4985 -7.43439 -0.505665 1.92038 -95.788 -46.7196 69.6179 -15.4726 10.8311 -3.31253 8.9547 11.1571 -43.6026 16.5156 1.0275 2.34885 -14.121 -11.2606 -4.48757 8.53455 -11.2292 -0.603579 
35.0018 93.6283 -38.9157 92.3999 -28.023 91.0989 -171.593 9.9366 94.9932 -64.9232 16.4826 1.40307 51.6573 -5.86607 0.921507 33.1897 9.50928 19.3404 177.448 21.0818 95.7501 -43.3639 2.51269 -3.66895 75.2147 -5.64179 -3.10235 32.9044 -0.585872 -3.31891 -0.590991 7.77023 -90.2469 11.3315 -1.29108 -0.36251 -0.33883 -1.30577 -0.30534 -22.8778 -1.12243 -0.733817 -2.86514 -1.12242 -0.733814 91.4104 -42.0083 -100.078 34.505 -11.7915 18.0138 -8.2585 -8.24809 -46.376 -9.88001 -0.557 0.929015 -95.9297 -47.4689 69.6485 -20.5375 10.7113 1.9075 8.38898 13.2704 -40.3024 14.7226 1.05275 3.21467 -14.6169 -9.19605 -3.00081 7.40183 -9.22495 -0.772614 
42.5242 95.7417 -34.3986 92.4028 -29.1066 89.6151 -171.921 18.5402 91.0873 -59.795 14.7545 -0.265003 56.3917 -2.63219 1.41228 36.1887 11.9352 17.5298 177.164 11.574 94.8394 -36.0904 1.59097 -5.24558 75.9053 -5.93697 -3.20354 33.2369 -0.667326 -3.73259 -0.290173 7.71669 -90.0155 11.441 -0.584573 0.0285126 -0.229792 -0.582748 0.0542098 -22.766 -0.566121 -0.148498 -2.75336 -0.566122 -0.148506 91.3791 -41.9855 -100.136 33.1706 -11.2768 13.3905 -8.51467 -6.18769 -52.0614 -14.0032 -0.577698 -0.56273 -95.2958 -47.5984 70.6411 -25.6366 10.114 7.22854 8.61002 16.6486 -37.4951 13.7612 1.0003 3.31427 -15.1437 -7.56323 -2.20941 5.305 -7.63318 -1.03743 
49.954 96.7179 -30.2667 91.3531 -31.0128 87.7421 -173.038 24.2768 88.3727 -44.8735 8.35233 -1.99244 58.9647 -1.34513 -0.0409099 38.9458 17.8894 23.7081 175.677 4.31259 92.8352 -30.5729 -1.70932 -5.98183 76.1434 -6.17611 -3.26992 34.5019 -0.802643 -4.15119 0.0865044 7.58472 -89.8208 11.704 0.256182 0.330286 0.0330058 0.270464 0.318679 -22.5019 0.145073 0.392006 -2.48925 0.145047 0.391997 90.8136 -40.9959 -101.352 32.0491 -11.353 9.14755 -11.9325 -6.06315 -57.6188 -16.0545 -0.78896 0.375644 -94.6682 -47.7364 71.626 -29.9077 9.45639 13.0169 8.9155 19.8975 -35.7976 14.1519 1.00863 3.18865 -15.58 -6.0168 -1.50399 4.48304 -6.05976 -0.446467 
